<svg xmlns="http://www.w3.org/2000/svg" viewBox="0 0 398.75 396.1"><defs><style>.cls-1{fill:#32caf8;}.cls-2{fill:#00a3eb;}.cls-3,.cls-7{fill:#fff;}.cls-4{fill:#ffd947;}.cls-5{fill:#f3a70f;}.cls-6{fill:#426572;}.cls-7{font-size:194.07px;font-family:Dosis-Bold, Dosis;font-weight:700;}</style></defs><title>Asset 87</title><g id="Layer_2" data-name="Layer 2"><g id="Layer_1-2" data-name="Layer 1"><rect class="cls-1" x="6" y="54.12" width="386.75" height="335.98" rx="86.19" ry="86.19"/><rect class="cls-2" x="6.44" y="157.91" width="386.75" height="7"/><path class="cls-2" d="M393.19,286.69v28.19A76.32,76.32,0,0,1,317.09,391H82.55A76.32,76.32,0,0,1,6.44,314.88V131.11a75.52,75.52,0,0,1,.88-11.55V275.14a76.32,76.32,0,0,0,76.11,76.11H318A76.38,76.38,0,0,0,393.19,286.69Z"/><ellipse class="cls-3" cx="360.38" cy="206.85" rx="3.83" ry="24.95" transform="translate(-3.67 6.53) rotate(-1.03)"/><ellipse class="cls-3" cx="361.11" cy="255.69" rx="3.83" ry="12.48" transform="translate(-4.54 6.53) rotate(-1.03)"/><path class="cls-4" d="M392.75,128.46v22.35H7.32v-33a75.52,75.52,0,0,0-.88,11.55v21.47H6V128.46A76.32,76.32,0,0,1,82.1,52.36H316.65A76.32,76.32,0,0,1,392.75,128.46Z"/><path class="cls-5" d="M397.17,132.88v22.35h-1.62a76.39,76.39,0,0,0-74.48-60.48H86.52A76.39,76.39,0,0,0,12,155.23h-.3v-33a75.52,75.52,0,0,0-.88,11.55v21.47h-.44V132.88A76.32,76.32,0,0,1,86.52,56.77H321.06A76.32,76.32,0,0,1,397.17,132.88Z"/><rect class="cls-6" x="6" y="146.58" width="386.75" height="12"/><path class="cls-6" d="M306.56,396.1H92.19A92.29,92.29,0,0,1,0,303.91V140.31A92.29,92.29,0,0,1,92.19,48.12H306.56a92.29,92.29,0,0,1,92.19,92.19v163.6A92.29,92.29,0,0,1,306.56,396.1ZM92.19,60.12A80.28,80.28,0,0,0,12,140.31v163.6A80.28,80.28,0,0,0,92.19,384.1H306.56a80.28,80.28,0,0,0,80.19-80.19V140.31a80.28,80.28,0,0,0-80.19-80.19Z"/><rect class="cls-1" x="94.74" y="6" width="42.38" height="93.6" rx="21.19" ry="21.19"/><rect class="cls-1" x="254.56" y="6" width="42.38" height="93.6" rx="21.19" ry="21.19"/><path class="cls-6" d="M115.93,105.6A27.22,27.22,0,0,1,88.74,78.41V27.19a27.19,27.19,0,0,1,54.38,0V78.41A27.22,27.22,0,0,1,115.93,105.6Zm0-93.6a15.21,15.21,0,0,0-15.19,15.19V78.41a15.19,15.19,0,0,0,30.38,0V27.19A15.21,15.21,0,0,0,115.93,12Z"/><path class="cls-6" d="M275.75,105.6a27.22,27.22,0,0,1-27.19-27.19V27.19a27.19,27.19,0,1,1,54.38,0V78.41A27.22,27.22,0,0,1,275.75,105.6Zm0-93.6a15.21,15.21,0,0,0-15.19,15.19V78.41a15.19,15.19,0,1,0,30.38,0V27.19A15.21,15.21,0,0,0,275.75,12Z"/><text class="cls-7" transform="translate(117.22 325.63)">01</text></g></g></svg>