<svg width="200" height="200" viewBox="0 0 200 200" fill="none" xmlns="http://www.w3.org/2000/svg">
<rect width="200" height="200" fill="#E5E5E5"/>
<rect width="200" height="200" rx="15" fill="white"/>
<path d="M103.485 152H98.8441L91.3909 141.664C89.5628 143.305 87.6175 144.852 85.555 146.305C83.5394 147.711 81.4066 148.953 79.1566 150.031C76.9066 151.062 74.5863 151.883 72.1956 152.492C69.8519 153.102 67.4613 153.406 65.0238 153.406C59.7269 153.406 54.7347 152.422 50.0472 150.453C45.4066 148.438 41.3284 145.672 37.8128 142.156C34.3441 138.594 31.6019 134.398 29.5863 129.57C27.5706 124.695 26.5628 119.398 26.5628 113.68C26.5628 108.008 27.5706 102.734 29.5863 97.8594C31.6019 92.9844 34.3441 88.7656 37.8128 85.2031C41.3284 81.6406 45.4066 78.8516 50.0472 76.8359C54.7347 74.8203 59.7269 73.8125 65.0238 73.8125C66.7113 73.8125 68.4456 73.9531 70.2269 74.2344C72.055 74.5156 73.8128 74.9844 75.5003 75.6406C77.2347 76.25 78.8519 77.0703 80.3519 78.1016C81.8519 79.1328 83.1175 80.3984 84.1488 81.8984V46.7422H103.485V152ZM84.1488 113.68C84.1488 111.055 83.6331 108.523 82.6019 106.086C81.6175 103.602 80.2581 101.422 78.5238 99.5469C76.7894 97.625 74.7503 96.1016 72.4066 94.9766C70.1097 93.8047 67.6488 93.2188 65.0238 93.2188C62.3988 93.2188 59.9144 93.6875 57.5706 94.625C55.2738 95.5625 53.2581 96.9219 51.5238 98.7031C49.8363 100.438 48.5003 102.57 47.5159 105.102C46.5316 107.633 46.0394 110.492 46.0394 113.68C46.0394 116.445 46.5316 119.07 47.5159 121.555C48.5003 124.039 49.8363 126.219 51.5238 128.094C53.2581 129.969 55.2738 131.445 57.5706 132.523C59.9144 133.602 62.3988 134.141 65.0238 134.141C67.6488 134.141 70.1097 133.578 72.4066 132.453C74.7503 131.281 76.7894 129.758 78.5238 127.883C80.2581 125.961 81.6175 123.781 82.6019 121.344C83.6331 118.859 84.1488 116.305 84.1488 113.68ZM151.218 152H132.023V95.8203H122.672V76.6953H132.023V73.1094C132.023 68.4688 132.89 64.1094 134.625 60.0312C136.406 55.9531 138.82 52.4141 141.867 49.4141C144.961 46.3672 148.547 43.9766 152.625 42.2422C156.703 40.4609 161.062 39.5703 165.703 39.5703H180.117V58.6953H165.703C163.64 58.6953 161.718 59.0703 159.937 59.8203C158.203 60.5234 156.679 61.5312 155.367 62.8438C154.101 64.1094 153.093 65.6328 152.343 67.4141C151.593 69.1484 151.218 71.0469 151.218 73.1094V76.6953H174.773V95.8203H151.218V152Z" fill="#7236A3"/>
</svg>
