<svg width="200" height="200" viewBox="0 0 200 200" fill="none" xmlns="http://www.w3.org/2000/svg">
<rect width="200" height="200" fill="#E5E5E5"/>
<rect width="200" height="200" fill="white"/>
<path d="M102.942 94.344C102.942 125.448 90.6544 141 66.0784 141H36.4144V51.576H66.6544C79.8064 51.576 89.1184 55.272 94.5904 62.664C100.158 69.96 102.942 80.52 102.942 94.344ZM65.6464 120.264C70.7344 120.264 73.9984 118.488 75.4384 114.936C76.9744 111.288 77.7424 105.24 77.7424 96.792C77.7424 88.248 76.9264 82.2 75.2944 78.648C73.7584 75.096 70.3984 73.32 65.2144 73.32H60.8944V120.264H65.6464ZM169.235 73.608H145.475V87H164.627V106.008H145.475V141H120.851V51.576H170.675L169.235 73.608Z" fill="#7236A3"/>
</svg>
