<svg width="200" height="200" viewBox="0 0 200 200" fill="none" xmlns="http://www.w3.org/2000/svg">
<rect width="200" height="200" fill="#E5E5E5"/>
<rect width="200" height="200" fill="white"/>
<path d="M105.65 141.864L96.0018 142.44C88.6098 142.44 84.0978 139.992 82.4658 135.096H81.7458C78.5778 139.992 73.7298 142.44 67.2018 142.44C58.5618 142.44 52.4658 139.416 48.9138 133.368C45.4578 127.32 43.7298 118.344 43.7298 106.44C43.7298 94.44 45.6978 85.416 49.6338 79.368C53.5698 73.32 59.2338 70.296 66.6258 70.296C71.7138 70.296 75.6498 71.496 78.4338 73.896V48.696H102.482V119.832C102.482 121.656 102.866 122.904 103.634 123.576C104.402 124.152 105.794 124.44 107.81 124.44L105.65 141.864ZM72.9618 90.6C70.9458 90.6 69.6018 91.848 68.9298 94.344C68.2578 96.744 67.9218 100.248 67.9218 104.856C67.9218 109.368 67.9698 112.44 68.0658 114.072C68.1618 115.704 68.3538 117.384 68.6418 119.112C69.0258 120.744 69.5538 121.896 70.2258 122.568C70.9938 123.144 72.1938 123.432 73.8258 123.432C75.5538 123.432 77.3298 123 79.1538 122.136V92.328C77.1378 91.176 75.0738 90.6 72.9618 90.6ZM144.611 47.688C150.563 47.688 156.803 47.976 163.331 48.552L161.315 69.576C156.995 69.096 153.827 68.856 151.811 68.856C149.891 68.856 148.931 69.72 148.931 71.448V74.04H160.739L159.587 91.896H149.219V141H125.171V91.896H118.835V74.04H125.171V66.84C125.171 54.072 131.651 47.688 144.611 47.688Z" fill="#8736C9"/>
</svg>
